<?xml version="1.0" encoding="utf-8"?>
<!-- Generator: Adobe Illustrator 17.1.0, SVG Export Plug-In . SVG Version: 6.00 Build 0)  -->
<!DOCTYPE svg PUBLIC "-//W3C//DTD SVG 1.1//EN" "http://www.w3.org/Graphics/SVG/1.1/DTD/svg11.dtd">
<svg version="1.1" id="Layer_1" xmlns="http://www.w3.org/2000/svg" xmlns:xlink="http://www.w3.org/1999/xlink" x="0px" y="0px"
	 viewBox="0 0 540 540" enable-background="new 0 0 540 540" xml:space="preserve">
<g>
	<path d="M15.5,207.5c1.7-3,3.1-6.4,5.3-9c4-4.9,9.6-6.6,15.9-6.6c24.5,0.1,49,0,73.5,0.1c3.6,0,6-1.2,8.5-3.6
		c32.4-32.5,64.9-64.9,97.3-97.3c6.4-6.4,13.7-8.7,22.2-5.2c8.6,3.5,12.2,10.6,12.2,19.7c0,109.7,0,219.4,0,329.1
		c0,9.8-4.2,16.7-12.1,19.7c-8.5,3.3-15.8,1.2-22.2-5.2c-32.3-32.4-64.7-64.7-97-97.1c-2.7-2.7-5.3-4-9.2-3.9
		c-23,0.2-46.1-0.3-69.1,0.3c-12.4,0.3-21-3.8-25.3-15.7C15.5,291,15.5,249.3,15.5,207.5z"/>
	<path d="M524.5,284c-1.6,11.5-2.8,23.1-5,34.5c-3.8,19.2-10.3,37.5-19,55.1c-9.3,18.8-20.9,36.1-34.6,51.9
		c-10.7,12.4-22.8,23.5-36,33.3c-14.5,10.8-30.1,19.7-46.6,26.9c-12.9,5.6-26.5-1.8-28.3-15.1c-1.1-8.4,4.3-17.2,13.7-21.3
		c16.6-7.3,31.9-16.6,45.9-28.1c19.2-15.9,34.7-34.8,46.7-56.7c21.9-40.1,28.7-82.8,21.3-127.7c-5.8-35.2-21.1-66.4-44-93.6
		c-16.1-19.2-35.7-34.2-57.7-46.1c-5.8-3.2-12-5.6-17.5-9.2c-8.1-5.3-10.7-15.4-6.7-23.1c5-9.7,14.7-14.3,24.4-10.4
		c9.1,3.7,17.9,8.3,26.5,13c21.9,12.1,40.8,28,57.3,46.6c13,14.6,24.4,30.4,32.9,48.1c5.7,11.8,10.7,23.9,15.3,36.2
		c6.4,17.1,9,35.1,10.8,53.2c0.2,1.7,0.5,3.5,0.8,5.2C524.5,265.5,524.5,274.7,524.5,284z"/>
	<path d="M446,281.9c-0.5,36.4-19.4,76.1-55.1,107.9c-11,9.8-23.6,17.3-37,23.2c-12.6,5.5-24.4,1.1-28.9-10.6
		c-2.9-7.7-0.3-16.9,6.9-21.5c6.9-4.5,14.3-8.2,21.3-12.5c15.6-9.8,28-22.8,37.4-38.6c8.2-13.8,13.8-28.6,15.3-44.5
		c1-10.5,1-21.4-0.3-31.9c-2.9-23.4-13-43.9-28.7-61.5c-10.9-12.2-24.2-21-38.7-28.3c-6.6-3.3-12.3-7.5-13.8-15.4
		c-2.8-14.4,10.7-27.1,24.6-22.4c8.1,2.8,15.9,6.8,23.3,11.3c19.2,11.6,34.7,27.1,47.1,45.7C437,209.2,446.1,238.3,446,281.9z"/>
	<path d="M367.8,272.6c-1.2,25.6-12.7,48.1-36.4,63.7c-4.5,3-9.9,5.4-15.2,6.6c-9.3,2.1-17.9-2.9-21.4-11.5
		c-3.6-8.5-0.8-17.2,7.5-23.5c2.9-2.2,5.9-4.4,9-6.3c14.7-8.8,18.8-22.2,16.8-38.3c-1.3-10.7-7-18.5-15.9-24.3
		c-4.3-2.8-8.6-5.7-12.4-9.1c-7.4-6.6-8.6-15.7-3.5-24.2c4.4-7.4,14.1-10.9,22.8-7.8c11.3,4,21,10.7,28.8,19.7
		C360.5,232,367.8,251.6,367.8,272.6z"/>
</g>
</svg>
