<?xml version="1.0" encoding="utf-8"?>
<!-- Generator: Adobe Illustrator 17.1.0, SVG Export Plug-In . SVG Version: 6.00 Build 0)  -->
<!DOCTYPE svg PUBLIC "-//W3C//DTD SVG 1.1//EN" "http://www.w3.org/Graphics/SVG/1.1/DTD/svg11.dtd">
<svg version="1.1" id="Layer_1" xmlns="http://www.w3.org/2000/svg" xmlns:xlink="http://www.w3.org/1999/xlink" x="0px" y="0px"
	 viewBox="0 0 540 540" enable-background="new 0 0 540 540" xml:space="preserve">
<g>
	<path d="M528,241.7c-20.7,29.4-40.9,57.9-61.4,87c-21.4-28.6-42.4-56.6-64.1-85.7c14.2,0,27.4,0,40.7,0
		c-5.8-63.9-58.2-144.7-153-164.2C191.9,58.6,94.7,115.3,64.5,209.6c-30.6,95.5,14.7,198.3,105.8,238.7
		c51.5,22.9,103.9,23.4,155.8,1.7c51.8-21.6,87.1-60,107.9-112.4c13.1,5.8,25.8,11.4,39,17.2c-1.1,2.7-1.9,5.1-2.9,7.4
		C435,440.5,375.5,489.2,291,504.5C164.3,527.4,42.5,443.9,16.9,318.1C-9.2,189.8,72.5,64.5,200.2,37.1
		C332.2,8.8,460.8,95.2,485,228.4c0.8,4.4,0.4,10.4,3,12.5c2.8,2.2,8.6,0.7,13.1,0.7C509.7,241.7,518.4,241.7,528,241.7z"/>
	<path d="M342.4,373.5c-60.7,0-120.9,0-181.5,0c0-43.1,0-86.1,0-129.6c5.7,0,11.4,0,17.7,0c0-3.5-0.1-6.5,0-9.6
		c0.3-12.8-0.7-25.8,1.1-38.3c3.5-23.2,23.6-39.3,47.1-39.5c16.6-0.2,33.2-0.2,49.8,0c25.8,0.3,46.9,20.9,47.5,46.7
		c0.3,13.3,0.1,26.6,0.1,40.5c6.3,0,12,0,18.1,0C342.4,287.2,342.4,330,342.4,373.5z M278.4,247.1c0-12.5,0.6-24.5-0.2-36.3
		c-0.8-12-7.5-17.2-19.6-17.3c-5,0-10,0-15,0c-10.7,0.1-16.8,4.1-18.1,14.6c-1.6,12.8-1.3,25.8-1.9,39
		C242.5,247.1,260.4,247.1,278.4,247.1z"/>
</g>
</svg>
